%TF.GenerationSoftware,KiCad,Pcbnew,7.0.7*%
%TF.CreationDate,2024-01-22T02:15:57+01:00*%
%TF.ProjectId,Overdrive,4f766572-6472-4697-9665-2e6b69636164,rev?*%
%TF.SameCoordinates,Original*%
%TF.FileFunction,Soldermask,Bot*%
%TF.FilePolarity,Negative*%
%FSLAX46Y46*%
G04 Gerber Fmt 4.6, Leading zero omitted, Abs format (unit mm)*
G04 Created by KiCad (PCBNEW 7.0.7) date 2024-01-22 02:15:57*
%MOMM*%
%LPD*%
G01*
G04 APERTURE LIST*
G04 Aperture macros list*
%AMRoundRect*
0 Rectangle with rounded corners*
0 $1 Rounding radius*
0 $2 $3 $4 $5 $6 $7 $8 $9 X,Y pos of 4 corners*
0 Add a 4 corners polygon primitive as box body*
4,1,4,$2,$3,$4,$5,$6,$7,$8,$9,$2,$3,0*
0 Add four circle primitives for the rounded corners*
1,1,$1+$1,$2,$3*
1,1,$1+$1,$4,$5*
1,1,$1+$1,$6,$7*
1,1,$1+$1,$8,$9*
0 Add four rect primitives between the rounded corners*
20,1,$1+$1,$2,$3,$4,$5,0*
20,1,$1+$1,$4,$5,$6,$7,0*
20,1,$1+$1,$6,$7,$8,$9,0*
20,1,$1+$1,$8,$9,$2,$3,0*%
G04 Aperture macros list end*
%ADD10C,1.600000*%
%ADD11C,5.600000*%
%ADD12O,1.600000X1.600000*%
%ADD13R,3.500000X3.500000*%
%ADD14RoundRect,0.750000X-1.000000X0.750000X-1.000000X-0.750000X1.000000X-0.750000X1.000000X0.750000X0*%
%ADD15RoundRect,0.875000X-0.875000X0.875000X-0.875000X-0.875000X0.875000X-0.875000X0.875000X0.875000X0*%
%ADD16R,1.700000X1.700000*%
%ADD17O,1.700000X1.700000*%
%ADD18R,1.600000X1.600000*%
%ADD19R,1.050000X1.500000*%
%ADD20O,1.050000X1.500000*%
%ADD21R,1.800000X1.800000*%
%ADD22C,1.800000*%
%ADD23C,3.000000*%
%ADD24C,2.000000*%
G04 APERTURE END LIST*
D10*
%TO.C,C1*%
X106095000Y-104150000D03*
X111095000Y-104150000D03*
%TD*%
D11*
%TO.C,J4*%
X94000000Y-72500000D03*
%TD*%
D10*
%TO.C,R19*%
X134500000Y-82750000D03*
D12*
X134500000Y-70050000D03*
%TD*%
D10*
%TO.C,C3*%
X123500000Y-131850000D03*
X123500000Y-126850000D03*
%TD*%
%TO.C,C9*%
X106095000Y-108500000D03*
X111095000Y-108500000D03*
%TD*%
D11*
%TO.C,J6*%
X94000000Y-130000000D03*
%TD*%
D13*
%TO.C,J2*%
X117500000Y-76000000D03*
D14*
X117500000Y-70000000D03*
D15*
X112800000Y-73000000D03*
%TD*%
D16*
%TO.C,RV1*%
X126595000Y-107000000D03*
D17*
X126595000Y-109540000D03*
X126595000Y-112080000D03*
%TD*%
D10*
%TO.C,C8*%
X91745000Y-109000000D03*
X96745000Y-109000000D03*
%TD*%
D18*
%TO.C,C11*%
X124595000Y-84182379D03*
D10*
X124595000Y-81682379D03*
%TD*%
D16*
%TO.C,RV3*%
X120000000Y-126350000D03*
D17*
X120000000Y-128890000D03*
X120000000Y-131430000D03*
%TD*%
D10*
%TO.C,R8*%
X115095000Y-101500000D03*
D12*
X115095000Y-88800000D03*
%TD*%
D10*
%TO.C,C2*%
X130095000Y-114080000D03*
X135095000Y-114080000D03*
%TD*%
D19*
%TO.C,Q2*%
X100475000Y-108500000D03*
D20*
X101745000Y-108500000D03*
X103015000Y-108500000D03*
%TD*%
D21*
%TO.C,D3*%
X129595000Y-78775000D03*
D22*
X129595000Y-76235000D03*
%TD*%
D10*
%TO.C,R7*%
X131000000Y-132200000D03*
D12*
X131000000Y-119500000D03*
%TD*%
D10*
%TO.C,R11*%
X130095000Y-99580000D03*
D12*
X142795000Y-99580000D03*
%TD*%
D10*
%TO.C,R6*%
X116000000Y-132200000D03*
D12*
X116000000Y-119500000D03*
%TD*%
D18*
%TO.C,C5*%
X140345000Y-112217621D03*
D10*
X140345000Y-114717621D03*
%TD*%
D23*
%TO.C,J1*%
X100350000Y-149000000D03*
X100350000Y-137570000D03*
X94000000Y-149000000D03*
X94000000Y-137570000D03*
X106700000Y-149000000D03*
X106700000Y-137570000D03*
%TD*%
D10*
%TO.C,C6*%
X119095000Y-92650000D03*
X119095000Y-97650000D03*
%TD*%
%TO.C,R1*%
X142795000Y-103580000D03*
D12*
X130095000Y-103580000D03*
%TD*%
D10*
%TO.C,R14*%
X99745000Y-111650000D03*
D12*
X99745000Y-124350000D03*
%TD*%
D10*
%TO.C,C4*%
X121595000Y-116000000D03*
X116595000Y-116000000D03*
%TD*%
D11*
%TO.C,J7*%
X141000000Y-130000000D03*
%TD*%
D18*
%TO.C,D2*%
X99595000Y-90070000D03*
D12*
X99595000Y-100230000D03*
%TD*%
D16*
%TO.C,BT1*%
X107000000Y-73000000D03*
D17*
X107000000Y-75540000D03*
%TD*%
D10*
%TO.C,R5*%
X112000000Y-119500000D03*
D12*
X112000000Y-132200000D03*
%TD*%
D24*
%TO.C,SW1*%
X99698000Y-127452000D03*
X99698000Y-130500000D03*
X99698000Y-133548000D03*
X103000000Y-127452000D03*
X103000000Y-130500000D03*
X103000000Y-133548000D03*
X106302000Y-127452000D03*
X106302000Y-130500000D03*
X106302000Y-133548000D03*
%TD*%
D10*
%TO.C,R12*%
X95745000Y-124350000D03*
D12*
X95745000Y-111650000D03*
%TD*%
D10*
%TO.C,R10*%
X135000000Y-119500000D03*
D12*
X135000000Y-132200000D03*
%TD*%
D19*
%TO.C,Q1*%
X119730000Y-121850000D03*
D20*
X121000000Y-121850000D03*
X122270000Y-121850000D03*
%TD*%
D10*
%TO.C,R17*%
X107745000Y-111650000D03*
D12*
X107745000Y-124350000D03*
%TD*%
D10*
%TO.C,R15*%
X107095000Y-85000000D03*
D12*
X119795000Y-85000000D03*
%TD*%
D10*
%TO.C,R13*%
X91745000Y-111650000D03*
D12*
X91745000Y-124350000D03*
%TD*%
D10*
%TO.C,C12*%
X130095000Y-111080000D03*
X135095000Y-111080000D03*
%TD*%
%TO.C,R3*%
X130095000Y-107580000D03*
D12*
X142795000Y-107580000D03*
%TD*%
D10*
%TO.C,R18*%
X107095000Y-81000000D03*
D12*
X119795000Y-81000000D03*
%TD*%
D11*
%TO.C,J5*%
X141000000Y-72500000D03*
%TD*%
D10*
%TO.C,R9*%
X127000000Y-119500000D03*
D12*
X127000000Y-132200000D03*
%TD*%
D10*
%TO.C,R2*%
X111095000Y-101500000D03*
D12*
X111095000Y-88800000D03*
%TD*%
D18*
%TO.C,C10*%
X126250000Y-70250000D03*
D10*
X126250000Y-72750000D03*
%TD*%
%TO.C,R4*%
X107095000Y-88800000D03*
D12*
X107095000Y-101500000D03*
%TD*%
D18*
%TO.C,D1*%
X96595000Y-100230000D03*
D12*
X96595000Y-90070000D03*
%TD*%
D16*
%TO.C,RV2*%
X103095000Y-97690000D03*
D17*
X103095000Y-95150000D03*
X103095000Y-92610000D03*
%TD*%
D18*
%TO.C,U1*%
X115095000Y-104770000D03*
D12*
X115095000Y-107310000D03*
X115095000Y-109850000D03*
X115095000Y-112390000D03*
X122715000Y-112390000D03*
X122715000Y-109850000D03*
X122715000Y-107310000D03*
X122715000Y-104770000D03*
%TD*%
D10*
%TO.C,R16*%
X103745000Y-111650000D03*
D12*
X103745000Y-124350000D03*
%TD*%
D23*
%TO.C,J3*%
X134650000Y-137430000D03*
X134650000Y-148860000D03*
X141000000Y-137430000D03*
X141000000Y-148860000D03*
X128300000Y-137430000D03*
X128300000Y-148860000D03*
%TD*%
M02*
