M48
; DRILL file {KiCad 7.0.7} date Mon Jan 22 02:15:53 2024
; FORMAT={-:-/ absolute / inch / decimal}
; #@! TF.CreationDate,2024-01-22T02:15:53+01:00
; #@! TF.GenerationSoftware,Kicad,Pcbnew,7.0.7
; #@! TF.FileFunction,Plated,1,2,PTH
FMAT,2
INCH
; #@! TA.AperFunction,Plated,PTH,ViaDrill
T1C0.0157
; #@! TA.AperFunction,Plated,PTH,ComponentDrill
T2C0.0295
; #@! TA.AperFunction,Plated,PTH,ComponentDrill
T3C0.0315
; #@! TA.AperFunction,Plated,PTH,ComponentDrill
T4C0.0354
; #@! TA.AperFunction,Plated,PTH,ComponentDrill
T5C0.0394
; #@! TA.AperFunction,Plated,PTH,ComponentDrill
T6C0.0591
; #@! TA.AperFunction,Plated,PTH,ComponentDrill
T7C0.1260
%
G90
G05
T1
X3.5827Y-5.3937
X3.5827Y-5.5118
X3.5827Y-5.6299
X3.5827Y-5.748
X3.5827Y-5.8661
X3.5827Y-5.9843
X3.6024Y-4.7441
X3.6417Y-3.0709
X3.6417Y-3.189
X3.6417Y-3.3071
X3.7008Y-5.9843
X3.7205Y-5.2953
X3.7598Y-3.0709
X3.7598Y-3.189
X3.7598Y-3.7992
X3.7598Y-4.0354
X3.7598Y-4.1535
X3.7617Y-3.6824
X3.8189Y-4.5079
X3.8189Y-4.626
X3.8189Y-4.7441
X3.8189Y-5.3937
X3.8189Y-5.5118
X3.8189Y-5.6299
X3.8189Y-5.748
X3.8189Y-5.8661
X3.8189Y-5.9843
X3.878Y-2.7165
X3.878Y-2.8346
X3.878Y-3.0709
X3.878Y-3.4252
X3.878Y-3.6811
X3.878Y-3.7992
X3.878Y-4.0354
X3.878Y-4.1535
X3.8798Y-2.954
X3.937Y-4.5079
X3.937Y-4.626
X3.937Y-4.7441
X3.937Y-5.9843
X3.9961Y-2.7165
X3.9961Y-2.8346
X3.9961Y-2.9528
X3.9961Y-3.1102
X3.9961Y-3.3071
X3.9961Y-3.4252
X4.0551Y-4.5079
X4.0551Y-4.626
X4.0551Y-4.7441
X4.0551Y-5.3937
X4.0551Y-5.5118
X4.0551Y-5.6299
X4.0551Y-5.748
X4.0551Y-5.8661
X4.0551Y-5.9843
X4.1142Y-2.7165
X4.1142Y-2.8346
X4.1142Y-3.1102
X4.1142Y-3.3071
X4.1142Y-3.4252
X4.1142Y-3.5433
X4.1732Y-4.5079
X4.1732Y-4.626
X4.1732Y-4.7441
X4.1732Y-5.5118
X4.1732Y-5.6299
X4.1732Y-5.748
X4.1732Y-5.9843
X4.1929Y-3.7992
X4.1929Y-3.9173
X4.252Y-2.7165
X4.252Y-3.1102
X4.2913Y-3.7992
X4.2913Y-3.9173
X4.2913Y-4.0157
X4.2913Y-4.626
X4.2913Y-4.7441
X4.2913Y-5.5118
X4.2913Y-5.6299
X4.2913Y-5.748
X4.2913Y-5.9843
X4.3701Y-3.1102
X4.3898Y-2.7165
X4.4094Y-3.9173
X4.4094Y-4.8622
X4.4094Y-5.0984
X4.4094Y-5.3937
X4.4094Y-5.5118
X4.4094Y-5.6299
X4.4094Y-5.748
X4.4094Y-5.8661
X4.4094Y-5.9843
X4.4882Y-3.1102
X4.4882Y-3.2283
X4.5276Y-3.7992
X4.5276Y-4.9803
X4.5276Y-5.3937
X4.5276Y-5.6299
X4.5276Y-5.748
X4.5276Y-5.8661
X4.5276Y-5.9843
X4.5294Y-5.5131
X4.6063Y-3.1102
X4.6063Y-3.2283
X4.6063Y-4.2913
X4.6457Y-5.3937
X4.6457Y-5.5118
X4.6457Y-5.6299
X4.6457Y-5.748
X4.6457Y-5.8661
X4.6457Y-5.9843
X4.685Y-3.9173
X4.7047Y-4.4291
X4.7638Y-5.3937
X4.7638Y-5.6299
X4.7638Y-5.748
X4.7638Y-5.8661
X4.7638Y-5.9843
X4.7656Y-5.5131
X4.8228Y-4.5079
X4.8228Y-4.626
X4.8819Y-5.3937
X4.8819Y-5.5118
X4.8819Y-5.6299
X4.8819Y-5.748
X4.8819Y-5.8661
X4.8819Y-5.9843
X4.9213Y-3.8189
X4.9213Y-3.937
X4.9409Y-4.5079
X4.9409Y-4.626
X4.9409Y-4.8031
X4.9409Y-4.9213
X5.0Y-5.6299
X5.0Y-5.748
X5.0Y-5.9843
X5.0018Y-5.5131
X5.0394Y-3.2283
X5.0394Y-3.3465
X5.0394Y-3.4646
X5.0394Y-3.5827
X5.0394Y-3.8189
X5.0394Y-3.937
X5.0591Y-4.626
X5.0591Y-4.8031
X5.0591Y-4.9213
X5.1181Y-5.5118
X5.1181Y-5.6299
X5.1181Y-5.748
X5.1181Y-5.9843
X5.1575Y-2.874
X5.1575Y-3.2283
X5.1575Y-3.3465
X5.1575Y-3.4646
X5.2362Y-3.8189
X5.2362Y-3.937
X5.2362Y-4.1142
X5.2362Y-4.2323
X5.2362Y-5.6299
X5.2362Y-5.748
X5.2362Y-5.9843
X5.238Y-5.5131
X5.2756Y-2.874
X5.2756Y-2.9921
X5.2756Y-3.3465
X5.2756Y-3.4646
X5.2756Y-3.5827
X5.2756Y-4.9213
X5.2756Y-5.0394
X5.3543Y-3.8189
X5.3543Y-3.937
X5.3543Y-4.1142
X5.3543Y-4.2323
X5.3543Y-5.5118
X5.3543Y-5.6299
X5.3543Y-5.748
X5.3543Y-5.9843
X5.3937Y-2.9921
X5.3937Y-3.1102
X5.3937Y-3.2283
X5.3937Y-3.3465
X5.3937Y-3.4646
X5.3937Y-3.5827
X5.4528Y-4.8031
X5.4528Y-4.9213
X5.4724Y-3.8189
X5.4724Y-3.937
X5.4724Y-4.1142
X5.4724Y-4.2323
X5.4724Y-5.6299
X5.4724Y-5.748
X5.4724Y-5.9843
X5.4742Y-5.5131
X5.5118Y-3.1102
X5.5118Y-3.2283
X5.5118Y-3.3465
X5.5118Y-3.4646
X5.5118Y-3.5827
X5.5709Y-4.685
X5.5709Y-4.9213
X5.5727Y-4.8044
X5.5906Y-5.5118
X5.5906Y-5.6299
X5.5906Y-5.748
X5.5906Y-5.9843
X5.6299Y-3.1102
X5.6299Y-3.2283
X5.6299Y-3.3465
X5.6299Y-3.4646
X5.6299Y-3.5827
X5.6299Y-3.7008
X5.689Y-4.4488
X5.689Y-4.5669
X5.689Y-4.685
X5.689Y-4.8031
X5.689Y-4.9213
X5.689Y-5.0394
X5.689Y-5.1575
X5.689Y-5.2756
X5.689Y-5.3937
X5.689Y-5.6299
X5.689Y-5.748
X5.689Y-5.8661
X5.689Y-5.9843
X5.6908Y-5.5131
T2
X3.9557Y-4.2717
X4.0057Y-4.2717
X4.0557Y-4.2717
X4.7138Y-4.7972
X4.7638Y-4.7972
X4.8138Y-4.7972
T3
X3.612Y-4.2913
X3.612Y-4.3957
X3.612Y-4.8957
X3.7695Y-4.3957
X3.7695Y-4.8957
X3.803Y-3.5461
X3.803Y-3.9461
X3.8089Y-4.2913
X3.9211Y-3.5461
X3.9211Y-3.9461
X3.927Y-4.3957
X3.927Y-4.8957
X4.0844Y-4.3957
X4.0844Y-4.8957
X4.177Y-4.1004
X4.177Y-4.2717
X4.2163Y-3.189
X4.2163Y-3.3465
X4.2163Y-3.4961
X4.2163Y-3.9961
X4.2419Y-4.3957
X4.2419Y-4.8957
X4.3738Y-3.4961
X4.3738Y-3.9961
X4.3738Y-4.1004
X4.3738Y-4.2717
X4.4094Y-4.7047
X4.4094Y-5.2047
X4.5313Y-3.4961
X4.5313Y-3.9961
X4.5313Y-4.1248
X4.5313Y-4.2248
X4.5313Y-4.3248
X4.5313Y-4.4248
X4.5669Y-4.7047
X4.5669Y-5.2047
X4.5904Y-4.5669
X4.6888Y-3.6476
X4.6888Y-3.8445
X4.7163Y-3.189
X4.7163Y-3.3465
X4.7872Y-4.5669
X4.8313Y-4.1248
X4.8313Y-4.2248
X4.8313Y-4.3248
X4.8313Y-4.4248
X4.8622Y-4.9941
X4.8622Y-5.1909
X4.9053Y-3.2158
X4.9053Y-3.3143
X4.9705Y-2.7657
X4.9705Y-2.8642
X5.0Y-4.7047
X5.0Y-5.2047
X5.1219Y-3.9205
X5.1219Y-4.078
X5.1219Y-4.2354
X5.1219Y-4.3732
X5.1219Y-4.4913
X5.1575Y-4.7047
X5.1575Y-5.2047
X5.2953Y-2.7579
X5.2953Y-3.2579
X5.315Y-4.7047
X5.315Y-5.2047
X5.3187Y-4.3732
X5.3187Y-4.4913
X5.5254Y-4.418
X5.5254Y-4.5164
X5.6219Y-3.9205
X5.6219Y-4.078
X5.6219Y-4.2354
T4
X5.1022Y-3.0014
X5.1022Y-3.1014
T5
X3.9251Y-5.0178
X3.9251Y-5.1378
X3.9251Y-5.2578
X4.0551Y-5.0178
X4.0551Y-5.1378
X4.0551Y-5.2578
X4.0589Y-3.6461
X4.0589Y-3.7461
X4.0589Y-3.8461
X4.1851Y-5.0178
X4.1851Y-5.1378
X4.1851Y-5.2578
X4.2126Y-2.874
X4.2126Y-2.974
X4.7244Y-4.9744
X4.7244Y-5.0744
X4.7244Y-5.1744
X4.9841Y-4.2126
X4.9841Y-4.3126
X4.9841Y-4.4126
T6
X3.7008Y-5.4161
X3.7008Y-5.8661
X3.9508Y-5.4161
X3.9508Y-5.8661
X4.2008Y-5.4161
X4.2008Y-5.8661
X5.0512Y-5.4106
X5.0512Y-5.8606
X5.3012Y-5.4106
X5.3012Y-5.8606
X5.5512Y-5.4106
X5.5512Y-5.8606
T7
X3.7008Y-2.8543
X3.7008Y-5.1181
X5.5512Y-2.8543
X5.5512Y-5.1181
T5
G00X4.4409Y-2.8346
M15
G01X4.4409Y-2.9134
M16
G05
G00X4.6654Y-2.7559
M15
G01X4.5866Y-2.7559
M16
G05
G00X4.6654Y-2.9921
M15
G01X4.5866Y-2.9921
M16
G05
T0
M30
